<svg xmlns="http://www.w3.org/2000/svg" xmlns:svg="http://www.w3.org/2000/svg" id="svg2" width="442" height="192" version="1.1"><defs id="defs4"><marker id="marker4658" orient="auto" overflow="visible" refX="0" refY="0"><path id="path4660" fill="#828282" fill-opacity="1" fill-rule="evenodd" stroke="#828282" stroke-linejoin="round" stroke-opacity="1" stroke-width=".625" d="M 8.7185878,4.0337352 -2.2072895,0.01601326 8.7185884,-4.0017078 c -1.7454984,2.3720609 -1.7354408,5.6174519 -6e-7,8.035443 z" transform="scale(-0.6,-0.6)"/></marker><marker id="Arrow1Send" orient="auto" overflow="visible" refX="0" refY="0"><path id="path4353" fill="#000" fill-opacity="1" fill-rule="evenodd" stroke="#000" stroke-opacity="1" stroke-width="1pt" d="M 0,0 5,-5 -12.5,0 5,5 0,0 Z" transform="matrix(-0.2,0,0,-0.2,-1.2,0)"/></marker><marker id="marker4652" orient="auto" overflow="visible" refX="0" refY="0"><path id="path4654" fill="#000" fill-opacity="1" fill-rule="evenodd" stroke="#000" stroke-opacity="1" stroke-width="1pt" d="M 0,0 5,-5 -12.5,0 5,5 0,0 Z" transform="matrix(-0.4,0,0,-0.4,-4,0)"/></marker><marker id="marker4648" orient="auto" overflow="visible" refX="0" refY="0"><path id="path4650" fill="#000" fill-opacity="1" fill-rule="evenodd" stroke="#000" stroke-opacity="1" stroke-width="1pt" d="M 0,0 5,-5 -12.5,0 5,5 0,0 Z" transform="matrix(-0.4,0,0,-0.4,-4,0)"/></marker><marker id="marker4599" orient="auto" overflow="visible" refX="0" refY="0"><path id="path4365" fill="#a51d1e" fill-opacity="1" fill-rule="evenodd" stroke="#a51d1e" stroke-linejoin="round" stroke-opacity="1" stroke-width=".625" d="M 8.7185878,4.0337352 -2.2072895,0.01601326 8.7185884,-4.0017078 c -1.7454984,2.3720609 -1.7354408,5.6174519 -6e-7,8.035443 z" transform="scale(-0.6,-0.6)"/></marker><marker id="Arrow1Mend" orient="auto" overflow="visible" refX="0" refY="0"><path id="path4347" fill="#000" fill-opacity="1" fill-rule="evenodd" stroke="#000" stroke-opacity="1" stroke-width="1pt" d="M 0,0 5,-5 -12.5,0 5,5 0,0 Z" transform="matrix(-0.4,0,0,-0.4,-4,0)"/></marker><marker id="marker4594" orient="auto" overflow="visible" refX="0" refY="0"><path id="path4338" fill="#000" fill-opacity="1" fill-rule="evenodd" stroke="#000" stroke-opacity="1" stroke-width="1pt" d="M 0,0 5,-5 -12.5,0 5,5 0,0 Z" transform="matrix(0.8,0,0,0.8,10,0)"/></marker><marker id="marker12418" orient="auto" overflow="visible" refX="0" refY="0"><path id="path12420" fill="#bc2122" fill-opacity="1" fill-rule="evenodd" stroke="#bc2122" stroke-opacity="1" stroke-width="1pt" d="m -2.5,-1 c 0,2.76 -2.24,5 -5,5 -2.76,0 -5,-2.24 -5,-5 0,-2.76 2.24,-5 5,-5 2.76,0 5,2.24 5,5 z" transform="matrix(0.4,0,0,0.4,2.96,0.4)"/></marker><marker id="DotM" orient="auto" overflow="visible" refX="0" refY="0"><path id="path5472" fill="#666ac2" fill-opacity="1" fill-rule="evenodd" stroke="#666ac2" stroke-opacity="1" stroke-width="1pt" d="m -2.5,-1 c 0,2.76 -2.24,5 -5,5 -2.76,0 -5,-2.24 -5,-5 0,-2.76 2.24,-5 5,-5 2.76,0 5,2.24 5,5 z" transform="matrix(0.4,0,0,0.4,2.96,0.4)"/></marker><marker id="Arrow2Mend" orient="auto" overflow="visible" refX="0" refY="0"><path id="path5435" fill="#000" fill-opacity="1" fill-rule="evenodd" stroke="#000" stroke-linejoin="round" stroke-opacity="1" stroke-width=".625" d="M 8.7185878,4.0337352 -2.2072895,0.01601326 8.7185884,-4.0017078 c -1.7454984,2.3720609 -1.7354408,5.6174519 -6e-7,8.035443 z" transform="scale(-0.6,-0.6)"/></marker><marker id="Arrow2Mstart" orient="auto" overflow="visible" refX="0" refY="0"><path id="path5432" fill="#000" fill-opacity="1" fill-rule="evenodd" stroke="#000" stroke-linejoin="round" stroke-opacity="1" stroke-width=".625" d="M 8.7185878,4.0337352 -2.2072895,0.01601326 8.7185884,-4.0017078 c -1.7454984,2.3720609 -1.7354408,5.6174519 -6e-7,8.035443 z" transform="scale(0.6,0.6)"/></marker><marker id="Arrow1Lstart" orient="auto" overflow="visible" refX="0" refY="0"><path id="path5408" fill="#488b24" fill-opacity="1" fill-rule="evenodd" stroke="#488b24" stroke-opacity="1" stroke-width="1pt" d="M 0,0 5,-5 -12.5,0 5,5 0,0 Z" transform="matrix(0.8,0,0,0.8,10,0)"/></marker><marker id="marker5850" orient="auto" overflow="visible" refX="0" refY="0"><path id="path5852" fill="#000" fill-opacity="1" fill-rule="evenodd" stroke="#000" stroke-opacity="1" stroke-width="1pt" d="M 0,0 5,-5 -12.5,0 5,5 0,0 Z" transform="matrix(-0.8,0,0,-0.8,-10,0)"/></marker><marker id="marker5824" orient="auto" overflow="visible" refX="0" refY="0"><path id="path5826" fill="#488b24" fill-opacity="1" fill-rule="evenodd" stroke="#488b24" stroke-opacity="1" stroke-width="1pt" d="M 0,0 5,-5 -12.5,0 5,5 0,0 Z" transform="matrix(-0.8,0,0,-0.8,-10,0)"/></marker><marker id="DotM-6" orient="auto" overflow="visible" refX="0" refY="0"><path id="path5472-6" fill="#eae385" fill-opacity="1" fill-rule="evenodd" stroke="#eae385" stroke-opacity="1" stroke-width="1pt" d="m -2.5,-1 c 0,2.76 -2.24,5 -5,5 -2.76,0 -5,-2.24 -5,-5 0,-2.76 2.24,-5 5,-5 2.76,0 5,2.24 5,5 z" transform="matrix(0.4,0,0,0.4,2.96,0.4)"/></marker><marker id="DotM-6-7" orient="auto" overflow="visible" refX="0" refY="0"><path id="path5472-6-7" fill="#666ac2" fill-opacity="1" fill-rule="evenodd" stroke="#666ac2" stroke-opacity="1" stroke-width="1pt" d="m -2.5,-1 c 0,2.76 -2.24,5 -5,5 -2.76,0 -5,-2.24 -5,-5 0,-2.76 2.24,-5 5,-5 2.76,0 5,2.24 5,5 z" transform="matrix(0.4,0,0,0.4,2.96,0.4)"/></marker><marker id="marker4599-5" orient="auto" overflow="visible" refX="0" refY="0"><path id="path4365-0" fill="#000" fill-opacity="1" fill-rule="evenodd" stroke="#000" stroke-linejoin="round" stroke-opacity="1" stroke-width=".625" d="M 8.7185878,4.0337352 -2.2072895,0.01601326 8.7185884,-4.0017078 c -1.7454984,2.3720609 -1.7354408,5.6174519 -6e-7,8.035443 z" transform="scale(-0.6,-0.6)"/></marker><marker id="marker4599-50" orient="auto" overflow="visible" refX="0" refY="0"><path id="path4365-8" fill="#828282" fill-opacity="1" fill-rule="evenodd" stroke="#828282" stroke-linejoin="round" stroke-opacity="1" stroke-width=".625" d="M 8.7185878,4.0337352 -2.2072895,0.01601326 8.7185884,-4.0017078 c -1.7454984,2.3720609 -1.7354408,5.6174519 -6e-7,8.035443 z" transform="scale(-0.6,-0.6)"/></marker><marker id="marker4658-4" orient="auto" overflow="visible" refX="0" refY="0"><path id="path4660-0" fill="#828282" fill-opacity="1" fill-rule="evenodd" stroke="#828282" stroke-linejoin="round" stroke-opacity="1" stroke-width=".625" d="M 8.7185878,4.0337352 -2.2072895,0.01601326 8.7185884,-4.0017078 c -1.7454984,2.3720609 -1.7354408,5.6174519 -6e-7,8.035443 z" transform="scale(-0.6,-0.6)"/></marker><marker id="marker4599-50-3" orient="auto" overflow="visible" refX="0" refY="0"><path id="path4365-8-5" fill="#828282" fill-opacity="1" fill-rule="evenodd" stroke="#828282" stroke-linejoin="round" stroke-opacity="1" stroke-width=".625" d="M 8.7185878,4.0337352 -2.2072895,0.01601326 8.7185884,-4.0017078 c -1.7454984,2.3720609 -1.7354408,5.6174519 -6e-7,8.035443 z" transform="scale(-0.6,-0.6)"/></marker><marker id="marker4599-8" orient="auto" overflow="visible" refX="0" refY="0"><path id="path4365-5" fill="#828282" fill-opacity="1" fill-rule="evenodd" stroke="#828282" stroke-linejoin="round" stroke-opacity="1" stroke-width=".625" d="M 8.7185878,4.0337352 -2.2072895,0.01601326 8.7185884,-4.0017078 c -1.7454984,2.3720609 -1.7354408,5.6174519 -6e-7,8.035443 z" transform="scale(-0.6,-0.6)"/></marker><marker id="marker4658-4-8" orient="auto" overflow="visible" refX="0" refY="0"><path id="path4660-0-0" fill="#828282" fill-opacity="1" fill-rule="evenodd" stroke="#828282" stroke-linejoin="round" stroke-opacity="1" stroke-width=".625" d="M 8.7185878,4.0337352 -2.2072895,0.01601326 8.7185884,-4.0017078 c -1.7454984,2.3720609 -1.7354408,5.6174519 -6e-7,8.035443 z" transform="scale(-0.6,-0.6)"/></marker><marker id="marker4658-4-4" orient="auto" overflow="visible" refX="0" refY="0"><path id="path4660-0-9" fill="#828282" fill-opacity="1" fill-rule="evenodd" stroke="#828282" stroke-linejoin="round" stroke-opacity="1" stroke-width=".625" d="M 8.7185878,4.0337352 -2.2072895,0.01601326 8.7185884,-4.0017078 c -1.7454984,2.3720609 -1.7354408,5.6174519 -6e-7,8.035443 z" transform="scale(-0.6,-0.6)"/></marker><marker id="marker4599-8-1" orient="auto" overflow="visible" refX="0" refY="0"><path id="path4365-5-2" fill="#828282" fill-opacity="1" fill-rule="evenodd" stroke="#828282" stroke-linejoin="round" stroke-opacity="1" stroke-width=".625" d="M 8.7185878,4.0337352 -2.2072895,0.01601326 8.7185884,-4.0017078 c -1.7454984,2.3720609 -1.7354408,5.6174519 -6e-7,8.035443 z" transform="scale(-0.6,-0.6)"/></marker><marker id="marker4599-8-1-0" orient="auto" overflow="visible" refX="0" refY="0"><path id="path4365-5-2-6" fill="#828282" fill-opacity="1" fill-rule="evenodd" stroke="#828282" stroke-linejoin="round" stroke-opacity="1" stroke-width=".625" d="M 8.7185878,4.0337352 -2.2072895,0.01601326 8.7185884,-4.0017078 c -1.7454984,2.3720609 -1.7354408,5.6174519 -6e-7,8.035443 z" transform="scale(-0.6,-0.6)"/></marker><marker id="marker4599-8-9" orient="auto" overflow="visible" refX="0" refY="0"><path id="path4365-5-0" fill="#828282" fill-opacity="1" fill-rule="evenodd" stroke="#828282" stroke-linejoin="round" stroke-opacity="1" stroke-width=".625" d="M 8.7185878,4.0337352 -2.2072895,0.01601326 8.7185884,-4.0017078 c -1.7454984,2.3720609 -1.7354408,5.6174519 -6e-7,8.035443 z" transform="scale(-0.6,-0.6)"/></marker><marker id="marker4599-50-3-3" orient="auto" overflow="visible" refX="0" refY="0"><path id="path4365-8-5-8" fill="#a51d1e" fill-opacity="1" fill-rule="evenodd" stroke="#a51d1e" stroke-linejoin="round" stroke-opacity="1" stroke-width=".625" d="M 8.7185878,4.0337352 -2.2072895,0.01601326 8.7185884,-4.0017078 c -1.7454984,2.3720609 -1.7354408,5.6174519 -6e-7,8.035443 z" transform="scale(-0.6,-0.6)"/></marker><marker id="marker4599-8-3" orient="auto" overflow="visible" refX="0" refY="0"><path id="path4365-5-1" fill="#828282" fill-opacity="1" fill-rule="evenodd" stroke="#828282" stroke-linejoin="round" stroke-opacity="1" stroke-width=".625" d="M 8.7185878,4.0337352 -2.2072895,0.01601326 8.7185884,-4.0017078 c -1.7454984,2.3720609 -1.7354408,5.6174519 -6e-7,8.035443 z" transform="scale(-0.6,-0.6)"/></marker><marker id="marker4599-50-3-0" orient="auto" overflow="visible" refX="0" refY="0"><path id="path4365-8-5-0" fill="#a51d1e" fill-opacity="1" fill-rule="evenodd" stroke="#a51d1e" stroke-linejoin="round" stroke-opacity="1" stroke-width=".625" d="M 8.7185878,4.0337352 -2.2072895,0.01601326 8.7185884,-4.0017078 c -1.7454984,2.3720609 -1.7354408,5.6174519 -6e-7,8.035443 z" transform="scale(-0.6,-0.6)"/></marker><marker id="marker4658-4-5" orient="auto" overflow="visible" refX="0" refY="0"><path id="path4660-0-03" fill="#828282" fill-opacity="1" fill-rule="evenodd" stroke="#828282" stroke-linejoin="round" stroke-opacity="1" stroke-width=".625" d="M 8.7185878,4.0337352 -2.2072895,0.01601326 8.7185884,-4.0017078 c -1.7454984,2.3720609 -1.7354408,5.6174519 -6e-7,8.035443 z" transform="scale(-0.6,-0.6)"/></marker><marker id="marker4658-4-8-1" orient="auto" overflow="visible" refX="0" refY="0"><path id="path4660-0-0-8" fill="#828282" fill-opacity="1" fill-rule="evenodd" stroke="#828282" stroke-linejoin="round" stroke-opacity="1" stroke-width=".625" d="M 8.7185878,4.0337352 -2.2072895,0.01601326 8.7185884,-4.0017078 c -1.7454984,2.3720609 -1.7354408,5.6174519 -6e-7,8.035443 z" transform="scale(-0.6,-0.6)"/></marker><marker id="marker4658-4-4-0" orient="auto" overflow="visible" refX="0" refY="0"><path id="path4660-0-9-1" fill="#828282" fill-opacity="1" fill-rule="evenodd" stroke="#828282" stroke-linejoin="round" stroke-opacity="1" stroke-width=".625" d="M 8.7185878,4.0337352 -2.2072895,0.01601326 8.7185884,-4.0017078 c -1.7454984,2.3720609 -1.7354408,5.6174519 -6e-7,8.035443 z" transform="scale(-0.6,-0.6)"/></marker><marker id="marker4599-8-1-7" orient="auto" overflow="visible" refX="0" refY="0"><path id="path4365-5-2-9" fill="#828282" fill-opacity="1" fill-rule="evenodd" stroke="#828282" stroke-linejoin="round" stroke-opacity="1" stroke-width=".625" d="M 8.7185878,4.0337352 -2.2072895,0.01601326 8.7185884,-4.0017078 c -1.7454984,2.3720609 -1.7354408,5.6174519 -6e-7,8.035443 z" transform="scale(-0.6,-0.6)"/></marker><marker id="marker4599-8-1-0-1" orient="auto" overflow="visible" refX="0" refY="0"><path id="path4365-5-2-6-0" fill="#828282" fill-opacity="1" fill-rule="evenodd" stroke="#828282" stroke-linejoin="round" stroke-opacity="1" stroke-width=".625" d="M 8.7185878,4.0337352 -2.2072895,0.01601326 8.7185884,-4.0017078 c -1.7454984,2.3720609 -1.7354408,5.6174519 -6e-7,8.035443 z" transform="scale(-0.6,-0.6)"/></marker><marker id="marker4599-8-9-3" orient="auto" overflow="visible" refX="0" refY="0"><path id="path4365-5-0-5" fill="#828282" fill-opacity="1" fill-rule="evenodd" stroke="#828282" stroke-linejoin="round" stroke-opacity="1" stroke-width=".625" d="M 8.7185878,4.0337352 -2.2072895,0.01601326 8.7185884,-4.0017078 c -1.7454984,2.3720609 -1.7354408,5.6174519 -6e-7,8.035443 z" transform="scale(-0.6,-0.6)"/></marker><marker id="marker4599-50-3-3-9" orient="auto" overflow="visible" refX="0" refY="0"><path id="path4365-8-5-8-4" fill="#828282" fill-opacity="1" fill-rule="evenodd" stroke="#828282" stroke-linejoin="round" stroke-opacity="1" stroke-width=".625" d="M 8.7185878,4.0337352 -2.2072895,0.01601326 8.7185884,-4.0017078 c -1.7454984,2.3720609 -1.7354408,5.6174519 -6e-7,8.035443 z" transform="scale(-0.6,-0.6)"/></marker><marker id="marker4599-8-37" orient="auto" overflow="visible" refX="0" refY="0"><path id="path4365-5-9" fill="#828282" fill-opacity="1" fill-rule="evenodd" stroke="#828282" stroke-linejoin="round" stroke-opacity="1" stroke-width=".625" d="M 8.7185878,4.0337352 -2.2072895,0.01601326 8.7185884,-4.0017078 c -1.7454984,2.3720609 -1.7354408,5.6174519 -6e-7,8.035443 z" transform="scale(-0.6,-0.6)"/></marker><marker id="marker4599-50-3-4" orient="auto" overflow="visible" refX="0" refY="0"><path id="path4365-8-5-9" fill="#828282" fill-opacity="1" fill-rule="evenodd" stroke="#828282" stroke-linejoin="round" stroke-opacity="1" stroke-width=".625" d="M 8.7185878,4.0337352 -2.2072895,0.01601326 8.7185884,-4.0017078 c -1.7454984,2.3720609 -1.7354408,5.6174519 -6e-7,8.035443 z" transform="scale(-0.6,-0.6)"/></marker><marker id="marker4658-4-9" orient="auto" overflow="visible" refX="0" refY="0"><path id="path4660-0-1" fill="#828282" fill-opacity="1" fill-rule="evenodd" stroke="#828282" stroke-linejoin="round" stroke-opacity="1" stroke-width=".625" d="M 8.7185878,4.0337352 -2.2072895,0.01601326 8.7185884,-4.0017078 c -1.7454984,2.3720609 -1.7354408,5.6174519 -6e-7,8.035443 z" transform="scale(-0.6,-0.6)"/></marker><marker id="marker4658-4-8-9" orient="auto" overflow="visible" refX="0" refY="0"><path id="path4660-0-0-4" fill="#828282" fill-opacity="1" fill-rule="evenodd" stroke="#828282" stroke-linejoin="round" stroke-opacity="1" stroke-width=".625" d="M 8.7185878,4.0337352 -2.2072895,0.01601326 8.7185884,-4.0017078 c -1.7454984,2.3720609 -1.7354408,5.6174519 -6e-7,8.035443 z" transform="scale(-0.6,-0.6)"/></marker><marker id="marker4658-4-4-2" orient="auto" overflow="visible" refX="0" refY="0"><path id="path4660-0-9-0" fill="#828282" fill-opacity="1" fill-rule="evenodd" stroke="#828282" stroke-linejoin="round" stroke-opacity="1" stroke-width=".625" d="M 8.7185878,4.0337352 -2.2072895,0.01601326 8.7185884,-4.0017078 c -1.7454984,2.3720609 -1.7354408,5.6174519 -6e-7,8.035443 z" transform="scale(-0.6,-0.6)"/></marker><marker id="marker4599-8-1-6" orient="auto" overflow="visible" refX="0" refY="0"><path id="path4365-5-2-5" fill="#a51d1e" fill-opacity="1" fill-rule="evenodd" stroke="#a51d1e" stroke-linejoin="round" stroke-opacity="1" stroke-width=".625" d="M 8.7185878,4.0337352 -2.2072895,0.01601326 8.7185884,-4.0017078 c -1.7454984,2.3720609 -1.7354408,5.6174519 -6e-7,8.035443 z" transform="scale(-0.6,-0.6)"/></marker><marker id="marker4599-8-1-0-9" orient="auto" overflow="visible" refX="0" refY="0"><path id="path4365-5-2-6-5" fill="#828282" fill-opacity="1" fill-rule="evenodd" stroke="#828282" stroke-linejoin="round" stroke-opacity="1" stroke-width=".625" d="M 8.7185878,4.0337352 -2.2072895,0.01601326 8.7185884,-4.0017078 c -1.7454984,2.3720609 -1.7354408,5.6174519 -6e-7,8.035443 z" transform="scale(-0.6,-0.6)"/></marker><marker id="marker4599-8-9-6" orient="auto" overflow="visible" refX="0" refY="0"><path id="path4365-5-0-1" fill="#828282" fill-opacity="1" fill-rule="evenodd" stroke="#828282" stroke-linejoin="round" stroke-opacity="1" stroke-width=".625" d="M 8.7185878,4.0337352 -2.2072895,0.01601326 8.7185884,-4.0017078 c -1.7454984,2.3720609 -1.7354408,5.6174519 -6e-7,8.035443 z" transform="scale(-0.6,-0.6)"/></marker><marker id="marker4599-50-3-3-1" orient="auto" overflow="visible" refX="0" refY="0"><path id="path4365-8-5-8-43" fill="#828282" fill-opacity="1" fill-rule="evenodd" stroke="#828282" stroke-linejoin="round" stroke-opacity="1" stroke-width=".625" d="M 8.7185878,4.0337352 -2.2072895,0.01601326 8.7185884,-4.0017078 c -1.7454984,2.3720609 -1.7354408,5.6174519 -6e-7,8.035443 z" transform="scale(-0.6,-0.6)"/></marker><marker id="marker4599-8-37-9" orient="auto" overflow="visible" refX="0" refY="0"><path id="path4365-5-9-3" fill="#828282" fill-opacity="1" fill-rule="evenodd" stroke="#828282" stroke-linejoin="round" stroke-opacity="1" stroke-width=".625" d="M 8.7185878,4.0337352 -2.2072895,0.01601326 8.7185884,-4.0017078 c -1.7454984,2.3720609 -1.7354408,5.6174519 -6e-7,8.035443 z" transform="scale(-0.6,-0.6)"/></marker><marker id="marker4599-50-3-4-8" orient="auto" overflow="visible" refX="0" refY="0"><path id="path4365-8-5-9-3" fill="#828282" fill-opacity="1" fill-rule="evenodd" stroke="#828282" stroke-linejoin="round" stroke-opacity="1" stroke-width=".625" d="M 8.7185878,4.0337352 -2.2072895,0.01601326 8.7185884,-4.0017078 c -1.7454984,2.3720609 -1.7354408,5.6174519 -6e-7,8.035443 z" transform="scale(-0.6,-0.6)"/></marker><marker id="marker4658-4-9-2" orient="auto" overflow="visible" refX="0" refY="0"><path id="path4660-0-1-9" fill="#828282" fill-opacity="1" fill-rule="evenodd" stroke="#828282" stroke-linejoin="round" stroke-opacity="1" stroke-width=".625" d="M 8.7185878,4.0337352 -2.2072895,0.01601326 8.7185884,-4.0017078 c -1.7454984,2.3720609 -1.7354408,5.6174519 -6e-7,8.035443 z" transform="scale(-0.6,-0.6)"/></marker><marker id="marker4658-4-8-9-5" orient="auto" overflow="visible" refX="0" refY="0"><path id="path4660-0-0-4-4" fill="#828282" fill-opacity="1" fill-rule="evenodd" stroke="#828282" stroke-linejoin="round" stroke-opacity="1" stroke-width=".625" d="M 8.7185878,4.0337352 -2.2072895,0.01601326 8.7185884,-4.0017078 c -1.7454984,2.3720609 -1.7354408,5.6174519 -6e-7,8.035443 z" transform="scale(-0.6,-0.6)"/></marker><marker id="marker4658-4-4-2-3" orient="auto" overflow="visible" refX="0" refY="0"><path id="path4660-0-9-0-9" fill="#828282" fill-opacity="1" fill-rule="evenodd" stroke="#828282" stroke-linejoin="round" stroke-opacity="1" stroke-width=".625" d="M 8.7185878,4.0337352 -2.2072895,0.01601326 8.7185884,-4.0017078 c -1.7454984,2.3720609 -1.7354408,5.6174519 -6e-7,8.035443 z" transform="scale(-0.6,-0.6)"/></marker><marker id="marker4599-8-1-6-4" orient="auto" overflow="visible" refX="0" refY="0"><path id="path4365-5-2-5-9" fill="#828282" fill-opacity="1" fill-rule="evenodd" stroke="#828282" stroke-linejoin="round" stroke-opacity="1" stroke-width=".625" d="M 8.7185878,4.0337352 -2.2072895,0.01601326 8.7185884,-4.0017078 c -1.7454984,2.3720609 -1.7354408,5.6174519 -6e-7,8.035443 z" transform="scale(-0.6,-0.6)"/></marker><marker id="marker4599-8-1-0-9-5" orient="auto" overflow="visible" refX="0" refY="0"><path id="path4365-5-2-6-5-5" fill="#828282" fill-opacity="1" fill-rule="evenodd" stroke="#828282" stroke-linejoin="round" stroke-opacity="1" stroke-width=".625" d="M 8.7185878,4.0337352 -2.2072895,0.01601326 8.7185884,-4.0017078 c -1.7454984,2.3720609 -1.7354408,5.6174519 -6e-7,8.035443 z" transform="scale(-0.6,-0.6)"/></marker><marker id="marker4599-8-9-6-7" orient="auto" overflow="visible" refX="0" refY="0"><path id="path4365-5-0-1-3" fill="#828282" fill-opacity="1" fill-rule="evenodd" stroke="#828282" stroke-linejoin="round" stroke-opacity="1" stroke-width=".625" d="M 8.7185878,4.0337352 -2.2072895,0.01601326 8.7185884,-4.0017078 c -1.7454984,2.3720609 -1.7354408,5.6174519 -6e-7,8.035443 z" transform="scale(-0.6,-0.6)"/></marker><marker id="marker4599-50-3-3-1-9" orient="auto" overflow="visible" refX="0" refY="0"><path id="path4365-8-5-8-43-0" fill="#a51d1e" fill-opacity="1" fill-rule="evenodd" stroke="#a51d1e" stroke-linejoin="round" stroke-opacity="1" stroke-width=".625" d="M 8.7185878,4.0337352 -2.2072895,0.01601326 8.7185884,-4.0017078 c -1.7454984,2.3720609 -1.7354408,5.6174519 -6e-7,8.035443 z" transform="scale(-0.6,-0.6)"/></marker></defs><metadata id="metadata7"/><g id="layer1" transform="translate(0,-860.35975)"><ellipse id="path5321" cx="-508.457" cy="865.912" fill="#eae385" fill-opacity="1" fill-rule="evenodd" stroke="#dacf2f" stroke-dasharray="none" stroke-dashoffset="0" stroke-linecap="butt" stroke-linejoin="round" stroke-miterlimit="4" stroke-opacity="1" stroke-width="2" rx="15.75" ry="47.25" transform="matrix(0.73061392,-0.68279081,0.68279081,0.73061392,0,0)"/><path id="path4332-0-4" fill="#828282" fill-rule="evenodd" stroke="#828282" stroke-dasharray="none" stroke-linecap="butt" stroke-linejoin="miter" stroke-miterlimit="4" stroke-opacity="1" stroke-width="2" marker-end="url(#marker4599-8-3)" d="m 192.81667,943.12565 c 52.59452,-56.97738 52.59452,-56.97738 52.59452,-56.97738"/><path id="path4332-1-9-6" fill="#a51d1e" fill-rule="evenodd" stroke="#a51d1e" stroke-dasharray="none" stroke-linecap="butt" stroke-linejoin="miter" stroke-miterlimit="4" stroke-opacity="1" stroke-width="4" marker-end="url(#marker4599-50-3-0)" d="m 192.44167,950.99225 c 52.59452,56.97735 52.59452,56.97735 52.59452,56.97735"/><path id="path4646-9-9" fill="#828282" fill-rule="evenodd" stroke="#828282" stroke-dasharray="none" stroke-linecap="butt" stroke-linejoin="miter" stroke-miterlimit="4" stroke-opacity="1" stroke-width="2" marker-end="url(#marker4658-4-5)" d="m 192.9608,946.79869 c 49.73861,0 49.73861,0 49.73861,0"/><path id="path4646-9-2-2" fill="#828282" fill-rule="evenodd" stroke="#828282" stroke-dasharray="none" stroke-linecap="butt" stroke-linejoin="miter" stroke-miterlimit="4" stroke-opacity="1" stroke-width="2" marker-end="url(#marker4658-4-8-1)" d="m 192.961,876.50061 c 49.73861,0 49.73861,0 49.73861,0"/><path id="path4646-9-0-9" fill="#828282" fill-rule="evenodd" stroke="#828282" stroke-dasharray="none" stroke-linecap="butt" stroke-linejoin="miter" stroke-miterlimit="4" stroke-opacity="1" stroke-width="2" marker-end="url(#marker4658-4-4-0)" d="m 192.961,1016.8022 c 49.73861,0 49.73861,0 49.73861,0"/><path id="path4332-0-0-0" fill="#828282" fill-rule="evenodd" stroke="#828282" stroke-dasharray="none" stroke-linecap="butt" stroke-linejoin="miter" stroke-miterlimit="4" stroke-opacity="1" stroke-width="2" marker-end="url(#marker4599-8-1-7)" d="M 189.2246,1006.3713 C 252.74771,892.05388 252.74771,892.05388 252.74771,892.05388"/><path id="path4332-0-0-3-3" fill="#828282" fill-rule="evenodd" stroke="#828282" stroke-dasharray="none" stroke-linecap="butt" stroke-linejoin="miter" stroke-miterlimit="4" stroke-opacity="1" stroke-width="2" marker-end="url(#marker4599-8-1-0-1)" d="m 187.9746,887.09002 c 63.52311,114.31748 63.52311,114.31748 63.52311,114.31748"/><path id="path4332-0-8-0" fill="#828282" fill-rule="evenodd" stroke="#828282" stroke-dasharray="none" stroke-linecap="butt" stroke-linejoin="miter" stroke-miterlimit="4" stroke-opacity="1" stroke-width="2" marker-end="url(#marker4599-8-9-3)" d="m 193.06667,1012.1256 c 52.59452,-56.97733 52.59452,-56.97733 52.59452,-56.97733"/><path id="path4332-1-9-7-3" fill="#828282" fill-rule="evenodd" stroke="#828282" stroke-dasharray="none" stroke-linecap="butt" stroke-linejoin="miter" stroke-miterlimit="4" stroke-opacity="1" stroke-width="2" marker-end="url(#marker4599-50-3-3-9)" d="m 191.94167,881.99225 c 52.59452,56.97738 52.59452,56.97738 52.59452,56.97738"/><path id="path4332-0-2" fill="#828282" fill-rule="evenodd" stroke="#828282" stroke-dasharray="none" stroke-linecap="butt" stroke-linejoin="miter" stroke-miterlimit="4" stroke-opacity="1" stroke-width="2" marker-end="url(#marker4599-8-37)" d="m 274.31667,943.12565 c 52.59452,-56.97738 52.59452,-56.97738 52.59452,-56.97738"/><path id="path4332-1-9-73" fill="#828282" fill-rule="evenodd" stroke="#828282" stroke-dasharray="none" stroke-linecap="butt" stroke-linejoin="miter" stroke-miterlimit="4" stroke-opacity="1" stroke-width="2" marker-end="url(#marker4599-50-3-4)" d="m 273.94167,950.99225 c 52.59452,56.97735 52.59452,56.97735 52.59452,56.97735"/><path id="path4646-9-3" fill="#828282" fill-rule="evenodd" stroke="#828282" stroke-dasharray="none" stroke-linecap="butt" stroke-linejoin="miter" stroke-miterlimit="4" stroke-opacity="1" stroke-width="2" marker-end="url(#marker4658-4-9)" d="m 274.4608,946.79869 c 49.73861,0 49.73861,0 49.73861,0"/><path id="path4646-9-2-9" fill="#828282" fill-rule="evenodd" stroke="#828282" stroke-dasharray="none" stroke-linecap="butt" stroke-linejoin="miter" stroke-miterlimit="4" stroke-opacity="1" stroke-width="2" marker-end="url(#marker4658-4-8-9)" d="m 274.461,876.50061 c 49.73861,0 49.73861,0 49.73861,0"/><path id="path4646-9-0-2" fill="#828282" fill-rule="evenodd" stroke="#828282" stroke-dasharray="none" stroke-linecap="butt" stroke-linejoin="miter" stroke-miterlimit="4" stroke-opacity="1" stroke-width="2" marker-end="url(#marker4658-4-4-2)" d="m 274.461,1016.8022 c 49.73861,0 49.73861,0 49.73861,0"/><path id="path4332-0-0-4" fill="#a51d1e" fill-rule="evenodd" stroke="#a51d1e" stroke-dasharray="none" stroke-linecap="butt" stroke-linejoin="miter" stroke-miterlimit="4" stroke-opacity="1" stroke-width="4" marker-end="url(#marker4599-8-1-6)" d="M 270.7246,1006.3713 C 334.24771,892.05388 334.24771,892.05388 334.24771,892.05388"/><path id="path4332-0-0-3-4" fill="#828282" fill-rule="evenodd" stroke="#828282" stroke-dasharray="none" stroke-linecap="butt" stroke-linejoin="miter" stroke-miterlimit="4" stroke-opacity="1" stroke-width="2" marker-end="url(#marker4599-8-1-0-9)" d="m 269.4746,887.09002 c 63.52311,114.31748 63.52311,114.31748 63.52311,114.31748"/><path id="path4332-0-8-4" fill="#828282" fill-rule="evenodd" stroke="#828282" stroke-dasharray="none" stroke-linecap="butt" stroke-linejoin="miter" stroke-miterlimit="4" stroke-opacity="1" stroke-width="2" marker-end="url(#marker4599-8-9-6)" d="m 274.56667,1012.1256 c 52.59452,-56.97733 52.59452,-56.97733 52.59452,-56.97733"/><path id="path4332-1-9-7-9" fill="#828282" fill-rule="evenodd" stroke="#828282" stroke-dasharray="none" stroke-linecap="butt" stroke-linejoin="miter" stroke-miterlimit="4" stroke-opacity="1" stroke-width="2" marker-end="url(#marker4599-50-3-3-1)" d="m 273.44167,881.99225 c 52.59452,56.97738 52.59452,56.97738 52.59452,56.97738"/><circle id="path4183-6-15" cx="261.409" cy="876.535" r="13.5" fill="#f4cece" fill-opacity="1" fill-rule="evenodd" stroke="#000" stroke-dasharray="none" stroke-dashoffset="0" stroke-linecap="butt" stroke-linejoin="round" stroke-miterlimit="4" stroke-opacity="1" stroke-width="3"/><circle id="path4183-6-9-0" cx="261.409" cy="946.565" r="13.5" fill="#f4cece" fill-opacity="1" fill-rule="evenodd" stroke="#000" stroke-dasharray="none" stroke-dashoffset="0" stroke-linecap="butt" stroke-linejoin="round" stroke-miterlimit="4" stroke-opacity="1" stroke-width="3"/><circle id="path4183-6-9-8-8" cx="261.409" cy="1016.596" r="13.5" fill="#f4cece" fill-opacity="1" fill-rule="evenodd" stroke="#000" stroke-dasharray="none" stroke-dashoffset="0" stroke-linecap="butt" stroke-linejoin="round" stroke-miterlimit="4" stroke-opacity="1" stroke-width="3"/><text id="text4230-3" x="242.918" y="1047.05" fill="#000" fill-opacity="1" stroke="none" stroke-linecap="butt" stroke-linejoin="miter" stroke-opacity="1" stroke-width="1" font-family="Segoe UI" font-size="17.5" font-stretch="normal" font-style="normal" font-variant="normal" font-weight="normal" letter-spacing="0" text-anchor="start" word-spacing="-9.46" writing-mode="lr-tb" xml:space="preserve" style="line-height:125%;-inkscape-font-specification:'Segoe UI, Normal';text-align:start"><tspan id="tspan4232-5" x="242.918" y="1047.05">tasty</tspan></text><text id="text4662-7" x="253.25" y="883.736" fill="#3d4970" fill-opacity="1" stroke="none" stroke-linecap="butt" stroke-linejoin="miter" stroke-opacity="1" stroke-width="1" font-family="Segoe UI" font-size="17.5" font-stretch="normal" font-style="normal" font-variant="normal" font-weight="normal" letter-spacing="0" text-anchor="start" word-spacing="-9.46" writing-mode="lr-tb" xml:space="preserve" style="line-height:125%;-inkscape-font-specification:'Segoe UI, Normal';text-align:start"><tspan id="tspan4664-7" x="253.25" y="883.736" fill="#3d4970" font-family="Georgia" font-size="20" font-stretch="normal" font-style="normal" font-variant="normal" font-weight="bold" style="-inkscape-font-specification:Georgia">N</tspan></text><text id="text4662-6-2" x="254" y="953.236" fill="#3d4970" fill-opacity="1" stroke="none" stroke-linecap="butt" stroke-linejoin="miter" stroke-opacity="1" stroke-width="1" font-family="Segoe UI" font-size="17.5" font-stretch="normal" font-style="normal" font-variant="normal" font-weight="normal" letter-spacing="0" text-anchor="start" word-spacing="-9.46" writing-mode="lr-tb" xml:space="preserve" style="line-height:125%;-inkscape-font-specification:'Segoe UI, Normal';text-align:start"><tspan id="tspan4664-1-3" x="254" y="953.236" fill="#3d4970" font-family="Georgia" font-size="20" font-stretch="normal" font-style="normal" font-variant="normal" font-weight="bold" style="-inkscape-font-specification:Georgia">V</tspan></text><text id="text4662-5-7" x="254.125" y="1022.611" fill="#3d4970" fill-opacity="1" stroke="none" stroke-linecap="butt" stroke-linejoin="miter" stroke-opacity="1" stroke-width="1" font-family="Segoe UI" font-size="17.5" font-stretch="normal" font-style="normal" font-variant="normal" font-weight="normal" letter-spacing="0" text-anchor="start" word-spacing="-9.46" writing-mode="lr-tb" xml:space="preserve" style="line-height:125%;-inkscape-font-specification:'Segoe UI, Normal';text-align:start"><tspan id="tspan4664-6-2" x="254.125" y="1022.611" fill="#3d4970" font-family="Georgia" font-size="20" font-stretch="normal" font-style="normal" font-variant="normal" font-weight="bold" style="-inkscape-font-specification:Georgia">A</tspan></text><path id="path4646-9-3-2" fill="#828282" fill-rule="evenodd" stroke="#828282" stroke-dasharray="none" stroke-linecap="butt" stroke-linejoin="miter" stroke-miterlimit="4" stroke-opacity="1" stroke-width="2" marker-end="url(#marker4658-4-9-2)" d="m 357.4608,946.79869 c 49.73861,0 49.73861,0 49.73861,0"/><path id="path4332-0-8-4-4" fill="#828282" fill-rule="evenodd" stroke="#828282" stroke-dasharray="none" stroke-linecap="butt" stroke-linejoin="miter" stroke-miterlimit="4" stroke-opacity="1" stroke-width="2" marker-end="url(#marker4599-8-9-6-7)" d="m 357.56667,1012.1256 c 52.59452,-56.97733 52.59452,-56.97733 52.59452,-56.97733"/><path id="path4332-1-9-7-9-1" fill="#a51d1e" fill-rule="evenodd" stroke="#a51d1e" stroke-dasharray="none" stroke-linecap="butt" stroke-linejoin="miter" stroke-miterlimit="4" stroke-opacity="1" stroke-width="4" marker-end="url(#marker4599-50-3-3-1-9)" d="m 356.44167,881.99225 c 52.59452,56.97738 52.59452,56.97738 52.59452,56.97738"/><circle id="path4183-6-5" cx="343.292" cy="876.535" r="13.5" fill="#f4cece" fill-opacity="1" fill-rule="evenodd" stroke="#000" stroke-dasharray="none" stroke-dashoffset="0" stroke-linecap="butt" stroke-linejoin="round" stroke-miterlimit="4" stroke-opacity="1" stroke-width="3"/><circle id="path4183-6-9-9" cx="343.292" cy="946.565" r="13.5" fill="#f4cece" fill-opacity="1" fill-rule="evenodd" stroke="#000" stroke-dasharray="none" stroke-dashoffset="0" stroke-linecap="butt" stroke-linejoin="round" stroke-miterlimit="4" stroke-opacity="1" stroke-width="3"/><circle id="path4183-6-9-8-9" cx="343.292" cy="1016.596" r="13.5" fill="#f4cece" fill-opacity="1" fill-rule="evenodd" stroke="#000" stroke-dasharray="none" stroke-dashoffset="0" stroke-linecap="butt" stroke-linejoin="round" stroke-miterlimit="4" stroke-opacity="1" stroke-width="3"/><text id="text4230-0" x="312.526" y="1047.05" fill="#000" fill-opacity="1" stroke="none" stroke-linecap="butt" stroke-linejoin="miter" stroke-opacity="1" stroke-width="1" font-family="Segoe UI" font-size="17.5" font-stretch="normal" font-style="normal" font-variant="normal" font-weight="normal" letter-spacing="0" text-anchor="start" word-spacing="-9.46" writing-mode="lr-tb" xml:space="preserve" style="line-height:125%;-inkscape-font-specification:'Segoe UI, Normal';text-align:start"><tspan id="tspan4232-7" x="312.526" y="1047.05">bunnies</tspan></text><text id="text4662-53" x="334.806" y="883.736" fill="#3d4970" fill-opacity="1" stroke="none" stroke-linecap="butt" stroke-linejoin="miter" stroke-opacity="1" stroke-width="1" font-family="Segoe UI" font-size="17.5" font-stretch="normal" font-style="normal" font-variant="normal" font-weight="normal" letter-spacing="0" text-anchor="start" word-spacing="-9.46" writing-mode="lr-tb" xml:space="preserve" style="line-height:125%;-inkscape-font-specification:'Segoe UI, Normal';text-align:start"><tspan id="tspan4664-76" x="334.806" y="883.736" fill="#3d4970" font-family="Georgia" font-size="20" font-stretch="normal" font-style="normal" font-variant="normal" font-weight="bold" style="-inkscape-font-specification:Georgia">N</tspan></text><text id="text4662-6-8" x="336.556" y="953.236" fill="#3d4970" fill-opacity="1" stroke="none" stroke-linecap="butt" stroke-linejoin="miter" stroke-opacity="1" stroke-width="1" font-family="Segoe UI" font-size="17.5" font-stretch="normal" font-style="normal" font-variant="normal" font-weight="normal" letter-spacing="0" text-anchor="start" word-spacing="-9.46" writing-mode="lr-tb" xml:space="preserve" style="line-height:125%;-inkscape-font-specification:'Segoe UI, Normal';text-align:start"><tspan id="tspan4664-1-1" x="336.556" y="953.236" fill="#3d4970" font-family="Georgia" font-size="20" font-stretch="normal" font-style="normal" font-variant="normal" font-weight="bold" style="-inkscape-font-specification:Georgia">V</tspan></text><text id="text4662-5-3" x="335.181" y="1022.611" fill="#3d4970" fill-opacity="1" stroke="none" stroke-linecap="butt" stroke-linejoin="miter" stroke-opacity="1" stroke-width="1" font-family="Segoe UI" font-size="17.5" font-stretch="normal" font-style="normal" font-variant="normal" font-weight="normal" letter-spacing="0" text-anchor="start" word-spacing="-9.46" writing-mode="lr-tb" xml:space="preserve" style="line-height:125%;-inkscape-font-specification:'Segoe UI, Normal';text-align:start"><tspan id="tspan4664-6-6" x="335.181" y="1022.611" fill="#3d4970" font-family="Georgia" font-size="20" font-stretch="normal" font-style="normal" font-variant="normal" font-weight="bold" style="-inkscape-font-specification:Georgia">A</tspan></text><circle id="path4183-63" cx="425.175" cy="946.584" r="13.5" fill="#f4cece" fill-opacity="1" fill-rule="evenodd" stroke="#000" stroke-dasharray="none" stroke-dashoffset="0" stroke-linecap="butt" stroke-linejoin="round" stroke-miterlimit="4" stroke-opacity="1" stroke-width="3"/><path id="path4332" fill="#a51d1e" fill-rule="evenodd" stroke="#a51d1e" stroke-dasharray="none" stroke-linecap="butt" stroke-linejoin="miter" stroke-miterlimit="4" stroke-opacity="1" stroke-width="4" marker-end="url(#marker4599)" d="M 29.730875,943.12607 C 82.325388,886.14869 82.325388,886.14869 82.325388,886.14869"/><path id="path4332-1" fill="#828282" fill-rule="evenodd" stroke="#828282" stroke-dasharray="none" stroke-linecap="butt" stroke-linejoin="miter" stroke-miterlimit="4" stroke-opacity="1" stroke-width="2" marker-end="url(#marker4599-50)" d="M 29.355875,950.99267 C 81.950388,1007.97 81.950388,1007.97 81.950388,1007.97"/><path id="path4646" fill="#828282" fill-rule="evenodd" stroke="#828282" stroke-dasharray="none" stroke-linecap="butt" stroke-linejoin="miter" stroke-miterlimit="4" stroke-opacity="1" stroke-width="2" marker-end="url(#marker4658)" d="m 29.875,946.79911 c 49.738612,0 49.738612,0 49.738612,0"/><circle id="path4183" cx="15.76" cy="946.584" r="13.5" fill="#f4cece" fill-opacity="1" fill-rule="evenodd" stroke="#000" stroke-dasharray="none" stroke-dashoffset="0" stroke-linecap="butt" stroke-linejoin="round" stroke-miterlimit="4" stroke-opacity="1" stroke-width="3"/><path id="path4332-0" fill="#828282" fill-rule="evenodd" stroke="#828282" stroke-dasharray="none" stroke-linecap="butt" stroke-linejoin="miter" stroke-miterlimit="4" stroke-opacity="1" stroke-width="2" marker-end="url(#marker4599-8)" d="m 111.31667,943.12565 c 52.59452,-56.97738 52.59452,-56.97738 52.59452,-56.97738"/><path id="path4332-1-9" fill="#828282" fill-rule="evenodd" stroke="#828282" stroke-dasharray="none" stroke-linecap="butt" stroke-linejoin="miter" stroke-miterlimit="4" stroke-opacity="1" stroke-width="2" marker-end="url(#marker4599-50-3)" d="m 110.94167,950.99225 c 52.59452,56.97735 52.59452,56.97735 52.59452,56.97735"/><path id="path4646-9" fill="#828282" fill-rule="evenodd" stroke="#828282" stroke-dasharray="none" stroke-linecap="butt" stroke-linejoin="miter" stroke-miterlimit="4" stroke-opacity="1" stroke-width="2" marker-end="url(#marker4658-4)" d="m 111.4608,946.79869 c 49.73861,0 49.73861,0 49.73861,0"/><path id="path4646-9-2" fill="#828282" fill-rule="evenodd" stroke="#828282" stroke-dasharray="none" stroke-linecap="butt" stroke-linejoin="miter" stroke-miterlimit="4" stroke-opacity="1" stroke-width="2" marker-end="url(#marker4658-4-8)" d="m 111.461,876.50061 c 49.73861,0 49.73861,0 49.73861,0"/><path id="path4646-9-0" fill="#828282" fill-rule="evenodd" stroke="#828282" stroke-dasharray="none" stroke-linecap="butt" stroke-linejoin="miter" stroke-miterlimit="4" stroke-opacity="1" stroke-width="2" marker-end="url(#marker4658-4-4)" d="m 111.461,1016.8022 c 49.73861,0 49.73861,0 49.73861,0"/><path id="path4332-0-0" fill="#828282" fill-rule="evenodd" stroke="#828282" stroke-dasharray="none" stroke-linecap="butt" stroke-linejoin="miter" stroke-miterlimit="4" stroke-opacity="1" stroke-width="2" marker-end="url(#marker4599-8-1)" d="M 107.7246,1006.3713 C 171.24771,892.05388 171.24771,892.05388 171.24771,892.05388"/><path id="path4332-0-0-3" fill="#828282" fill-rule="evenodd" stroke="#828282" stroke-dasharray="none" stroke-linecap="butt" stroke-linejoin="miter" stroke-miterlimit="4" stroke-opacity="1" stroke-width="2" marker-end="url(#marker4599-8-1-0)" d="m 106.4746,887.09002 c 63.52311,114.31748 63.52311,114.31748 63.52311,114.31748"/><path id="path4332-0-8" fill="#828282" fill-rule="evenodd" stroke="#828282" stroke-dasharray="none" stroke-linecap="butt" stroke-linejoin="miter" stroke-miterlimit="4" stroke-opacity="1" stroke-width="2" marker-end="url(#marker4599-8-9)" d="m 111.56667,1012.1256 c 52.59452,-56.97733 52.59452,-56.97733 52.59452,-56.97733"/><path id="path4332-1-9-7" fill="#a51d1e" fill-rule="evenodd" stroke="#a51d1e" stroke-dasharray="none" stroke-linecap="butt" stroke-linejoin="miter" stroke-miterlimit="4" stroke-opacity="1" stroke-width="4" marker-end="url(#marker4599-50-3-3)" d="m 110.44167,881.99225 c 52.59452,56.97738 52.59452,56.97738 52.59452,56.97738"/><circle id="path4183-6-1" cx="179.526" cy="876.535" r="13.5" fill="#f4cece" fill-opacity="1" fill-rule="evenodd" stroke="#000" stroke-dasharray="none" stroke-dashoffset="0" stroke-linecap="butt" stroke-linejoin="round" stroke-miterlimit="4" stroke-opacity="1" stroke-width="3"/><circle id="path4183-6-9-3" cx="179.526" cy="946.565" r="13.5" fill="#f4cece" fill-opacity="1" fill-rule="evenodd" stroke="#000" stroke-dasharray="none" stroke-dashoffset="0" stroke-linecap="butt" stroke-linejoin="round" stroke-miterlimit="4" stroke-opacity="1" stroke-width="3"/><circle id="path4183-6-9-8-5" cx="179.526" cy="1016.596" r="13.5" fill="#f4cece" fill-opacity="1" fill-rule="evenodd" stroke="#000" stroke-dasharray="none" stroke-dashoffset="0" stroke-linecap="butt" stroke-linejoin="round" stroke-miterlimit="4" stroke-opacity="1" stroke-width="3"/><text id="text4230-9" x="167.336" y="1047.05" fill="#000" fill-opacity="1" stroke="none" stroke-linecap="butt" stroke-linejoin="miter" stroke-opacity="1" stroke-width="1" font-family="Segoe UI" font-size="17.5" font-stretch="normal" font-style="normal" font-variant="normal" font-weight="normal" letter-spacing="0" text-anchor="start" word-spacing="-9.46" writing-mode="lr-tb" xml:space="preserve" style="line-height:125%;-inkscape-font-specification:'Segoe UI, Normal';text-align:start"><tspan id="tspan4232-3" x="167.336" y="1047.05">eat</tspan></text><text id="text4662-2" x="171.134" y="883.736" fill="#3d4970" fill-opacity="1" stroke="none" stroke-linecap="butt" stroke-linejoin="miter" stroke-opacity="1" stroke-width="1" font-family="Segoe UI" font-size="17.5" font-stretch="normal" font-style="normal" font-variant="normal" font-weight="normal" letter-spacing="0" text-anchor="start" word-spacing="-9.46" writing-mode="lr-tb" xml:space="preserve" style="line-height:125%;-inkscape-font-specification:'Segoe UI, Normal';text-align:start"><tspan id="tspan4664-4" x="171.134" y="883.736" fill="#3d4970" font-family="Georgia" font-size="20" font-stretch="normal" font-style="normal" font-variant="normal" font-weight="bold" style="-inkscape-font-specification:Georgia">N</tspan></text><text id="text4662-6-7" x="172.384" y="953.236" fill="#3d4970" fill-opacity="1" stroke="none" stroke-linecap="butt" stroke-linejoin="miter" stroke-opacity="1" stroke-width="1" font-family="Segoe UI" font-size="17.5" font-stretch="normal" font-style="normal" font-variant="normal" font-weight="normal" letter-spacing="0" text-anchor="start" word-spacing="-9.46" writing-mode="lr-tb" xml:space="preserve" style="line-height:125%;-inkscape-font-specification:'Segoe UI, Normal';text-align:start"><tspan id="tspan4664-1-8" x="172.384" y="953.236" fill="#3d4970" font-family="Georgia" font-size="20" font-stretch="normal" font-style="normal" font-variant="normal" font-weight="bold" style="-inkscape-font-specification:Georgia">V</tspan></text><text id="text4662-5-6" x="172.509" y="1022.611" fill="#3d4970" fill-opacity="1" stroke="none" stroke-linecap="butt" stroke-linejoin="miter" stroke-opacity="1" stroke-width="1" font-family="Segoe UI" font-size="17.5" font-stretch="normal" font-style="normal" font-variant="normal" font-weight="normal" letter-spacing="0" text-anchor="start" word-spacing="-9.46" writing-mode="lr-tb" xml:space="preserve" style="line-height:125%;-inkscape-font-specification:'Segoe UI, Normal';text-align:start"><tspan id="tspan4664-6-3" x="172.509" y="1022.611" fill="#3d4970" font-family="Georgia" font-size="20" font-stretch="normal" font-style="normal" font-variant="normal" font-weight="bold" style="-inkscape-font-specification:Georgia">A</tspan></text><circle id="path4183-6" cx="97.643" cy="876.535" r="13.5" fill="#f4cece" fill-opacity="1" fill-rule="evenodd" stroke="#000" stroke-dasharray="none" stroke-dashoffset="0" stroke-linecap="butt" stroke-linejoin="round" stroke-miterlimit="4" stroke-opacity="1" stroke-width="3"/><circle id="path4183-6-9" cx="97.643" cy="946.565" r="13.5" fill="#f4cece" fill-opacity="1" fill-rule="evenodd" stroke="#000" stroke-dasharray="none" stroke-dashoffset="0" stroke-linecap="butt" stroke-linejoin="round" stroke-miterlimit="4" stroke-opacity="1" stroke-width="3"/><circle id="path4183-6-9-8" cx="97.643" cy="1016.596" r="13.5" fill="#f4cece" fill-opacity="1" fill-rule="evenodd" stroke="#000" stroke-dasharray="none" stroke-dashoffset="0" stroke-linecap="butt" stroke-linejoin="round" stroke-miterlimit="4" stroke-opacity="1" stroke-width="3"/><text id="text4230" x="61.664" y="1047.05" fill="#000" fill-opacity="1" stroke="none" stroke-linecap="butt" stroke-linejoin="miter" stroke-opacity="1" stroke-width="1" font-family="Segoe UI" font-size="17.5" font-stretch="normal" font-style="normal" font-variant="normal" font-weight="normal" letter-spacing="0" text-anchor="start" word-spacing="-9.46" writing-mode="lr-tb" xml:space="preserve" style="line-height:125%;-inkscape-font-specification:'Segoe UI, Normal';text-align:start"><tspan id="tspan4232" x="61.664" y="1047.05">monsters</tspan></text><text id="text4662" x="89.25" y="883.736" fill="#3d4970" fill-opacity="1" stroke="none" stroke-linecap="butt" stroke-linejoin="miter" stroke-opacity="1" stroke-width="1" font-family="Segoe UI" font-size="17.5" font-stretch="normal" font-style="normal" font-variant="normal" font-weight="normal" letter-spacing="0" text-anchor="start" word-spacing="-9.46" writing-mode="lr-tb" xml:space="preserve" style="line-height:125%;-inkscape-font-specification:'Segoe UI, Normal';text-align:start"><tspan id="tspan4664" x="89.25" y="883.736" fill="#3d4970" font-family="Georgia" font-size="20" font-stretch="normal" font-style="normal" font-variant="normal" font-weight="bold" style="-inkscape-font-specification:Georgia">N</tspan></text><text id="text4662-6" x="90" y="953.236" fill="#3d4970" fill-opacity="1" stroke="none" stroke-linecap="butt" stroke-linejoin="miter" stroke-opacity="1" stroke-width="1" font-family="Segoe UI" font-size="17.5" font-stretch="normal" font-style="normal" font-variant="normal" font-weight="normal" letter-spacing="0" text-anchor="start" word-spacing="-9.46" writing-mode="lr-tb" xml:space="preserve" style="line-height:125%;-inkscape-font-specification:'Segoe UI, Normal';text-align:start"><tspan id="tspan4664-1" x="90" y="953.236" fill="#3d4970" font-family="Georgia" font-size="20" font-stretch="normal" font-style="normal" font-variant="normal" font-weight="bold" style="-inkscape-font-specification:Georgia">V</tspan></text><text id="text4662-5" x="90.125" y="1022.611" fill="#3d4970" fill-opacity="1" stroke="none" stroke-linecap="butt" stroke-linejoin="miter" stroke-opacity="1" stroke-width="1" font-family="Segoe UI" font-size="17.5" font-stretch="normal" font-style="normal" font-variant="normal" font-weight="normal" letter-spacing="0" text-anchor="start" word-spacing="-9.46" writing-mode="lr-tb" xml:space="preserve" style="line-height:125%;-inkscape-font-specification:'Segoe UI, Normal';text-align:start"><tspan id="tspan4664-6" x="90.125" y="1022.611" fill="#3d4970" font-family="Georgia" font-size="20" font-stretch="normal" font-style="normal" font-variant="normal" font-weight="bold" style="-inkscape-font-specification:Georgia">A</tspan></text></g></svg>